<?xml version="1.0" encoding="UTF-8"?>
<svg id="Layer_2" data-name="Layer 2" xmlns="http://www.w3.org/2000/svg" viewBox="0 0 1700.13 566.04">
  <g id="Layer_2-2" data-name="Layer 2">
    <g>
      <path d="m144.5,355.27c-3.62,2.1-7.69,3.67-12.24,4.72-4.55,1.05-9.04,1.57-13.46,1.57-9.09,0-17.9-2.04-26.41-6.12-8.51-4.08-15.56-9.85-21.16-17.31l-38.82,42.67c11.89,10.96,24.71,18.89,38.47,23.78,13.75,4.9,28.68,7.34,44.77,7.34,12.82,0,25.01-1.63,36.55-4.9,11.54-3.26,21.68-8.27,30.43-15.04,8.74-6.76,15.68-15.27,20.81-25.53,5.13-10.26,7.69-22.26,7.69-36.02,0-14.45-2.8-26-8.39-34.62-5.6-8.62-12.65-15.5-21.16-20.63-8.51-5.13-17.66-9.09-27.45-11.89-9.79-2.8-18.95-5.6-27.45-8.39-8.51-2.8-15.56-6.17-21.16-10.14-5.6-3.96-8.39-9.67-8.39-17.14,0-4.66,1.16-8.62,3.5-11.89,2.33-3.26,5.36-5.88,9.09-7.87,3.73-1.98,7.69-3.44,11.89-4.37,4.2-.93,8.27-1.4,12.24-1.4,6.76,0,13.93,1.34,21.51,4.02,7.57,2.68,13.58,6.82,18.01,12.42l37.42-40.92c-10.49-9.32-22.27-15.97-35.32-19.94-13.06-3.96-26.58-5.95-40.57-5.95-12.13,0-23.9,1.69-35.32,5.07-11.43,3.38-21.51,8.45-30.25,15.21-8.74,6.76-15.74,15.16-20.98,25.18-5.25,10.03-7.87,21.68-7.87,34.97s2.85,24.83,8.57,33.22c5.71,8.39,12.88,15.16,21.51,20.28,8.62,5.13,17.95,9.21,27.98,12.24,10.02,3.03,19.35,6.07,27.98,9.09,8.62,3.03,15.79,6.71,21.51,11.02,5.71,4.32,8.57,10.2,8.57,17.66,0,4.43-1.11,8.28-3.32,11.54-2.22,3.27-5.13,5.95-8.74,8.04Z"/>
      <path d="m251.69,158.02v152.14c0,14.69,2.21,28.21,6.65,40.57,4.43,12.36,11.02,23.08,19.76,32.18,8.74,9.09,19.64,16.21,32.7,21.33,13.06,5.13,28.21,7.69,45.47,7.69s32.06-2.57,45.12-7.69c13.06-5.12,23.96-12.24,32.7-21.33,8.74-9.09,15.33-19.81,19.76-32.18,4.43-12.36,6.65-25.88,6.65-40.57v-152.14h-54.56v150.04c0,7.69-1.22,14.81-3.67,21.33-2.45,6.53-5.89,12.19-10.32,16.96-4.43,4.78-9.68,8.51-15.74,11.19-6.07,2.68-12.71,4.02-19.94,4.02s-13.94-1.34-20.11-4.02c-6.18-2.68-11.49-6.41-15.91-11.19-4.43-4.78-7.87-10.43-10.32-16.96-2.45-6.53-3.67-13.64-3.67-21.33v-150.04h-54.56Z"/>
      <path d="m604.4,355.27c-3.62,2.1-7.69,3.67-12.24,4.72-4.55,1.05-9.04,1.57-13.46,1.57-9.09,0-17.9-2.04-26.41-6.12-8.51-4.08-15.56-9.85-21.16-17.31l-38.82,42.67c11.89,10.96,24.71,18.89,38.47,23.78,13.75,4.9,28.68,7.34,44.77,7.34,12.82,0,25.01-1.63,36.55-4.9,11.54-3.26,21.68-8.27,30.43-15.04,8.74-6.76,15.68-15.27,20.81-25.53,5.13-10.26,7.69-22.26,7.69-36.02,0-14.45-2.8-26-8.39-34.62-5.6-8.62-12.65-15.5-21.16-20.63-8.51-5.13-17.66-9.09-27.45-11.89-9.79-2.8-18.95-5.6-27.45-8.39-8.51-2.8-15.56-6.17-21.16-10.14-5.6-3.96-8.39-9.67-8.39-17.14,0-4.66,1.16-8.62,3.5-11.89,2.33-3.26,5.36-5.88,9.09-7.87,3.73-1.98,7.69-3.44,11.89-4.37,4.2-.93,8.27-1.4,12.24-1.4,6.76,0,13.93,1.34,21.51,4.02,7.57,2.68,13.58,6.82,18.01,12.42l37.42-40.92c-10.49-9.32-22.27-15.97-35.32-19.94-13.06-3.96-26.58-5.95-40.57-5.95-12.13,0-23.9,1.69-35.32,5.07-11.43,3.38-21.51,8.45-30.25,15.21-8.74,6.76-15.74,15.16-20.98,25.18-5.25,10.03-7.87,21.68-7.87,34.97s2.85,24.83,8.57,33.22c5.71,8.39,12.88,15.16,21.51,20.28,8.62,5.13,17.95,9.21,27.98,12.24,10.02,3.03,19.35,6.07,27.98,9.09,8.62,3.03,15.79,6.71,21.51,11.02,5.71,4.32,8.57,10.2,8.57,17.66,0,4.43-1.11,8.28-3.32,11.54-2.22,3.27-5.13,5.95-8.74,8.04Z"/>
      <polygon points="711.59 158.02 711.59 405.64 766.15 405.64 766.15 298.62 872.13 298.62 872.13 405.64 926.68 405.64 926.68 158.02 872.13 158.02 872.13 250.35 766.15 250.35 766.15 158.02 711.59 158.02"/>
      <rect x="976.34" y="158.02" width="54.56" height="247.62"/>
      <path d="m1645.57,158.02v150.04c0,7.69-1.22,14.81-3.67,21.33-2.45,6.53-5.89,12.19-10.32,16.96-4.43,4.78-9.68,8.51-15.74,11.19-6.07,2.68-12.71,4.02-19.94,4.02s-13.93-1.34-20.11-4.02c-6.18-2.68-11.49-6.41-15.91-11.19-4.43-4.78-7.87-10.43-10.32-16.96-2.45-6.53-3.67-13.64-3.67-21.33v-150.04h-54.56v152.14c0,14.69,2.21,28.21,6.65,40.57,4.43,12.36,11.02,23.08,19.76,32.18,8.74,9.09,19.64,16.21,32.7,21.33,13.05,5.13,28.21,7.69,45.47,7.69s32.06-2.57,45.12-7.69c13.05-5.12,23.96-12.24,32.7-21.33,8.74-9.09,15.33-19.81,19.76-32.18,4.43-12.36,6.64-25.88,6.64-40.57v-152.14h-54.56Z"/>
      <path d="m1321.93,181.78h-45.92l-80.92,123.2v35.28h86.52v39.76h40.32v-39.76h25.48v-35.28h-25.48v-123.2Zm-40.32,123.2h-44.52l43.96-68.32h.56v68.32Z"/>
      <path d="m1336.07,122.79c2.42-2.21,3.95-5.38,3.96-8.93,0-6.93-5.33-12.69-12.23-13.22L30.94.1C14.95-1.21,1.01,10.89.05,26.91c-.96,16.02,11.45,29.69,27.48,30.3l1201.37,63.54c-65.88,3.29-118.76,58.2-118.76,124.86v77.58c0,61.08,44.4,112.29,102.52,122.97L27.53,508.84c-16.03.61-28.44,14.28-27.48,30.3.96,16.01,14.9,28.11,30.89,26.81l1296.85-100.55c6.9-.53,12.23-6.29,12.23-13.22,0-2.43-.73-4.68-1.96-6.57,56.73-11.79,99.7-62.33,99.7-122.42v-77.58c0-60.79-43.98-111.81-101.7-122.81Zm59.11,190.3c0,50.88-41.63,92.52-92.52,92.52h-57.41c-50.88,0-92.52-41.63-92.52-92.52v-57.41c0-50.88,41.63-92.52,92.52-92.52h57.41c50.88,0,92.52,41.63,92.52,92.52v57.41Z"/>
    </g>
  </g>
</svg>